{
  "source": "C:\\Users\\Peter\\Desktop\\stuff\\MIUN\\quantitative_research\\video_compression\\videos\\BVI-HD\\BVI-HD_CDVL_videos\\ORIG\\BridgeRiver_1920x1080_30fps.mp4",
  "output": "C:\\Users\\Peter\\Desktop\\stuff\\MIUN\\quantitative_research\\video_compression\\compressed_videos\\BVI-HD\\vp9\\4\\BridgeRiver_1920x1080_30fps_vp9.webm",
  "codec": "vp9",
  "ok": "Input #0, mov,mp4,m4a,3gp,3g2,mj2, from 'C:\\Users\\Peter\\Desktop\\stuff\\MIUN\\quantitative_research\\video_compression\\videos\\BVI-HD\\BVI-HD_CDVL_videos\\ORIG\\BridgeRiver_1920x1080_30fps.mp4':\n  Metadata:\n    major_brand     : isom\n    minor_version   : 512\n    compatible_brands: isomiso2avc1mp41\n    encoder         : Lavf54.28.101\n  Duration: 00:00:05.00, start: 0.000000, bitrate: 274913 kb/s\n  Stream #0:0[0x1](und): Video: h264 (High 4:4:4 Predictive) (avc1 / 0x31637661), yuv420p(progressive), 1920x1080, 274910 kb/s, 30 fps, 30 tbr, 30 tbn (default)\n    Metadata:\n      handler_name    : VideoHandler\n      vendor_id       : [0][0][0][0]\n[out#0/webm @ 0000023463e39240] Codec AVOption b:a (set bitrate (in bits/s)) has not been used for any stream. The most likely reason is either wrong type (e.g. a video option with no video streams) or that it is a private option of some decoder which was not actually used for any stream.\nStream mapping:\n  Stream #0:0 -> #0:0 (h264 (native) -> vp9 (libvpx-vp9))\nPress [q] to stop, [?] for help\n[libvpx-vp9 @ 00000234648e04c0] v1.15.2-100-g40561f514\nOutput #0, webm, to 'C:\\Users\\Peter\\Desktop\\stuff\\MIUN\\quantitative_research\\video_compression\\compressed_videos\\BVI-HD\\vp9\\4\\BridgeRiver_1920x1080_30fps_vp9.webm':\n  Metadata:\n    major_brand     : isom\n    minor_version   : 512\n    compatible_brands: isomiso2avc1mp41\n    encoder         : Lavf62.3.100\n  Stream #0:0(und): Video: vp9, yuv420p(tv, progressive), 1920x1080, q=2-31, 4000 kb/s, 30 fps, 1k tbn (default)\n    Metadata:\n      encoder         : Lavc62.11.100 libvpx-vp9\n      handler_name    : VideoHandler\n      vendor_id       : [0][0][0][0]\n    Side data:\n      cpb: bitrate max/min/avg: 0/0/0 buffer size: 4000000 vbv_delay: N/A\nframe=    0 fps=0.0 q=0.0 size=       0KiB time=N/A bitrate=N/A speed=N/A elapsed=0:00:00.51    \nframe=    2 fps=1.7 q=23.0 size=       1KiB time=00:00:00.06 bitrate=  76.1kbits/s speed=0.0582x elapsed=0:00:01.14    \nframe=    6 fps=3.6 q=62.0 size=       1KiB time=00:00:00.20 bitrate=  25.4kbits/s speed=0.12x elapsed=0:00:01.66    \nframe=   10 fps=4.6 q=60.0 size=       1KiB time=00:00:00.33 bitrate=  15.2kbits/s speed=0.152x elapsed=0:00:02.18    \nframe=   13 fps=4.8 q=59.0 size=       1KiB time=00:00:00.43 bitrate=  11.7kbits/s speed=0.16x elapsed=0:00:02.71    \nframe=   17 fps=5.3 q=59.0 size=       1KiB time=00:00:00.56 bitrate=   9.0kbits/s speed=0.176x elapsed=0:00:03.22    \nframe=   20 fps=5.3 q=59.0 size=       1KiB time=00:00:00.66 bitrate=   7.6kbits/s speed=0.177x elapsed=0:00:03.77    \nframe=   24 fps=5.5 q=59.0 size=       1KiB time=00:00:00.80 bitrate=   6.3kbits/s speed=0.185x elapsed=0:00:04.32    \nframe=   27 fps=5.6 q=60.0 size=       1KiB time=00:00:00.90 bitrate=   5.6kbits/s speed=0.185x elapsed=0:00:04.86    \nframe=   31 fps=5.8 q=35.0 size=       1KiB time=00:00:01.03 bitrate=   4.9kbits/s speed=0.192x elapsed=0:00:05.38    \nframe=   35 fps=5.9 q=59.0 size=       1KiB time=00:00:01.16 bitrate=   4.3kbits/s speed=0.197x elapsed=0:00:05.93    \nframe=   38 fps=5.9 q=59.0 size=       1KiB time=00:00:01.26 bitrate=   4.0kbits/s speed=0.196x elapsed=0:00:06.47    \nframe=   42 fps=6.0 q=61.0 size=       1KiB time=00:00:01.40 bitrate=   3.6kbits/s speed= 0.2x elapsed=0:00:06.99    \nframe=   45 fps=6.0 q=60.0 size=       1KiB time=00:00:01.50 bitrate=   3.4kbits/s speed=0.199x elapsed=0:00:07.52    \nframe=   49 fps=6.1 q=60.0 size=       1KiB time=00:00:01.63 bitrate=   3.1kbits/s speed=0.203x elapsed=0:00:08.03    \nframe=   53 fps=6.2 q=60.0 size=       1KiB time=00:00:01.76 bitrate=   2.9kbits/s speed=0.207x elapsed=0:00:08.55    \nframe=   56 fps=6.2 q=60.0 size=       1KiB time=00:00:01.86 bitrate=   2.7kbits/s speed=0.206x elapsed=0:00:09.06    \nframe=   60 fps=6.3 q=60.0 size=       1KiB time=00:00:02.00 bitrate=   2.5kbits/s speed=0.209x elapsed=0:00:09.57    \nframe=   63 fps=6.2 q=60.0 size=       1KiB time=00:00:02.10 bitrate=   2.4kbits/s speed=0.208x elapsed=0:00:10.10    \nframe=   67 fps=6.3 q=60.0 size=       1KiB time=00:00:02.23 bitrate=   2.3kbits/s speed=0.21x elapsed=0:00:10.63    \nframe=   70 fps=6.3 q=60.0 size=       1KiB time=00:00:02.33 bitrate=   2.2kbits/s speed=0.209x elapsed=0:00:11.16    \nframe=   74 fps=6.3 q=60.0 size=       1KiB time=00:00:02.46 bitrate=   2.1kbits/s speed=0.211x elapsed=0:00:11.68    \nframe=   78 fps=6.4 q=60.0 size=       1KiB time=00:00:02.60 bitrate=   2.0kbits/s speed=0.212x elapsed=0:00:12.23    \nframe=   82 fps=6.4 q=60.0 size=       1KiB time=00:00:02.73 bitrate=   1.9kbits/s speed=0.214x elapsed=0:00:12.78    \nframe=   86 fps=6.4 q=60.0 size=       1KiB time=00:00:02.86 bitrate=   1.8kbits/s speed=0.215x elapsed=0:00:13.35    \nframe=   90 fps=6.5 q=60.0 size=       1KiB time=00:00:03.00 bitrate=   1.7kbits/s speed=0.216x elapsed=0:00:13.88    \nframe=   93 fps=6.4 q=59.0 size=       1KiB time=00:00:03.10 bitrate=   1.6kbits/s speed=0.215x elapsed=0:00:14.44    \nframe=   97 fps=6.5 q=60.0 size=       1KiB time=00:00:03.23 bitrate=   1.6kbits/s speed=0.216x elapsed=0:00:14.95    \nframe=  100 fps=6.5 q=60.0 size=       1KiB time=00:00:03.33 bitrate=   1.5kbits/s speed=0.215x elapsed=0:00:15.49    \nframe=  104 fps=6.5 q=60.0 size=       1KiB time=00:00:03.46 bitrate=   1.5kbits/s speed=0.217x elapsed=0:00:15.99    \nframe=  108 fps=6.5 q=60.0 size=       1KiB time=00:00:03.60 bitrate=   1.4kbits/s speed=0.218x elapsed=0:00:16.51    \nframe=  112 fps=6.6 q=60.0 size=       1KiB time=00:00:03.73 bitrate=   1.4kbits/s speed=0.219x elapsed=0:00:17.05    \nframe=  116 fps=6.6 q=60.0 size=       1KiB time=00:00:03.86 bitrate=   1.3kbits/s speed=0.22x elapsed=0:00:17.57    \nframe=  120 fps=6.6 q=60.0 size=       1KiB time=00:00:04.00 bitrate=   1.3kbits/s speed=0.221x elapsed=0:00:18.10    \nframe=  124 fps=6.6 q=61.0 size=       1KiB time=00:00:04.13 bitrate=   1.2kbits/s speed=0.222x elapsed=0:00:18.65    \nframe=  126 fps=6.6 q=61.0 size=       1KiB time=00:00:04.20 bitrate=   1.2kbits/s speed=0.219x elapsed=0:00:19.17    \nframe=  126 fps=6.4 q=61.0 size=       1KiB time=00:00:04.20 bitrate=   1.2kbits/s speed=0.213x elapsed=0:00:19.69    \nframe=  126 fps=6.2 q=61.0 size=       1KiB time=00:00:04.20 bitrate=   1.2kbits/s speed=0.208x elapsed=0:00:20.21    \nframe=  126 fps=6.1 q=61.0 size=       1KiB time=00:00:04.20 bitrate=   1.2kbits/s speed=0.203x elapsed=0:00:20.73    \nframe=  126 fps=5.9 q=61.0 size=       1KiB time=00:00:04.20 bitrate=   1.2kbits/s speed=0.198x elapsed=0:00:21.25    \nframe=  126 fps=5.8 q=61.0 size=       1KiB time=00:00:04.20 bitrate=   1.2kbits/s speed=0.193x elapsed=0:00:21.77    \n[out#0/webm @ 0000023463e39240] video:2422KiB audio:0KiB subtitle:0KiB other streams:0KiB global headers:0KiB muxing overhead: 0.071203%\nframe=  150 fps=6.8 q=60.0 Lsize=    2424KiB time=00:00:05.00 bitrate=3971.2kbits/s speed=0.226x elapsed=0:00:22.15    \n",
  "seconds": 22.44409489631653,
  "probe_out": {}
}